<svg xmlns="http://www.w3.org/2000/svg" viewBox="0 0 32 40" x="0px" y="0px"><g data-name="Layer 2"><path d="M26,6H23V5a3,3,0,0,0-3-3H12A3,3,0,0,0,9,5V6H6A2,2,0,0,0,4,8v2a2,2,0,0,0,2,2V27a3,3,0,0,0,3,3H23a3,3,0,0,0,3-3V12a2,2,0,0,0,2-2V8A2,2,0,0,0,26,6ZM11,5a1,1,0,0,1,1-1h8a1,1,0,0,1,1,1V6H11ZM24,27a1,1,0,0,1-1,1H9a1,1,0,0,1-1-1V12H24Zm2-17H6V8H26v2ZM12,25V15a1,1,0,0,1,2,0V25a1,1,0,0,1-2,0Zm6,0V15a1,1,0,0,1,2,0V25a1,1,0,0,1-2,0Z"/></g><text x="0" y="47" fill="#000000" font-size="5px" font-weight="bold" font-family="'Helvetica Neue', Helvetica, Arial-Unicode, Arial, Sans-serif">Created by scorpicon</text><text x="0" y="52" fill="#000000" font-size="5px" font-weight="bold" font-family="'Helvetica Neue', Helvetica, Arial-Unicode, Arial, Sans-serif">from the Noun Project</text></svg>